<?xml version="1.0" encoding="utf-8"?>
<svg id="Layer_1" style="enable-background:new 0 0 100 125;" x="0px" y="0px" viewBox="0 0 100 100" xmlns="http://www.w3.org/2000/svg">
  <style type="text/css">
	.st0{fill:#F7F4F3;}
</style>
  <path class="st0" d="M28.8,88.1L28.8,88.1c0.1,0,0.2,0,0.4,0c0.7,0,1.4-0.2,1.9-0.7c0.7-0.5,1.1-1.3,1.2-2.1l6.4-56.8v56.6&#10;&#9;c0,1.7,1.4,3.1,3.1,3.1H61c1.7,0,3.1-1.4,3.1-3.1V12.9c0-1.7-1.4-3.1-3.1-3.1H41.8c-1,0-1.8,0.5-2.4,1.2c-0.5-0.4-1.1-0.7-1.8-0.8&#10;&#9;L18.5,7.9c-1.7-0.2-3.3,1-3.5,2.8L6.9,82.5c-0.1,0.8,0.1,1.6,0.7,2.3s1.3,1.1,2.1,1.2L28.8,88.1z M10.3,70.4l21.3,2.4l-0.5,4.3&#10;&#9;L9.8,74.8L10.3,70.4z M37,25.8l-21.3-2.4l0.5-4.3l21.3,2.4L37,25.8z M15.4,25.3l21.3,2.4l-4.9,43.1l-21.3-2.4L15.4,25.3z M62.1,70.8&#10;&#9;H40.7V27.4h21.5v43.4H62.1z M40.7,72.8h21.5v4.4H40.7V72.8z M62.1,25.4H40.7V21h21.5v4.4H62.1z M61,86.3H41.8&#10;&#9;c-0.6,0-1.1-0.5-1.1-1.1v-6h21.5v6C62.1,85.8,61.6,86.3,61,86.3z M41.8,11.8H61c0.6,0,1.1,0.5,1.1,1.1V19H40.7v-6.1&#10;&#9;C40.7,12.3,41.2,11.8,41.8,11.8z M17.5,10.2C17.7,10,18,9.9,18.3,10l19.1,2.2c0.6,0.1,1.1,0.6,1,1.2l-0.7,6.1L16.4,17l0.7-6.1&#10;&#9;C17.1,10.6,17.2,10.4,17.5,10.2z M8.9,82.7l0.7-6l21.3,2.4l-0.7,6c0,0.3-0.2,0.6-0.4,0.8c-0.2,0.2-0.5,0.3-0.8,0.2L9.9,84&#10;&#9;c-0.3,0-0.6-0.2-0.8-0.4C9,83.3,8.9,83,8.9,82.7z" style="stroke: rgb(0, 0, 0); fill: rgb(0, 0, 0);"/>
  <path class="st0" d="M88.7,9.8H69.5c-1.7,0-3.1,1.4-3.1,3.1v72.3c0,1.7,1.4,3.1,3.1,3.1h19.2c1.7,0,3.1-1.4,3.1-3.1V12.9&#10;&#9;C91.9,11.2,90.5,9.8,88.7,9.8z M68.4,27.4h21.5v43.4H68.4V27.4z M89.9,25.4H68.4V21h21.5V25.4z M68.4,72.8h21.5v4.4H68.4V72.8z&#10;&#9; M69.5,11.8h19.2c0.6,0,1.1,0.5,1.1,1.1V19H68.4v-6.1C68.4,12.3,68.9,11.8,69.5,11.8z M88.7,86.3H69.5c-0.6,0-1.1-0.5-1.1-1.1v-6&#10;&#9;h21.5v6C89.9,85.8,89.4,86.3,88.7,86.3z" style="stroke: rgb(0, 0, 0); fill: rgb(0, 0, 0);"/>
  <path class="st0" d="M51.4,61c4.6,0,8.3-5.4,8.3-12S56,37,51.4,37s-8.3,5.4-8.3,12S46.8,61,51.4,61z M51.4,39.1&#10;&#9;c3.5,0,6.3,4.5,6.3,10s-2.8,10-6.3,10s-6.3-4.5-6.3-10S47.9,39.1,51.4,39.1z" style="stroke: rgb(0, 0, 0); fill: rgb(0, 0, 0);"/>
  <path class="st0" d="M22.3,59.9c0.2,0,0.4,0,0.7,0c4.3,0,8.2-4.8,8.9-11c0.4-3.1-0.1-6.1-1.4-8.5c-1.3-2.5-3.3-4-5.5-4.3&#10;&#9;c-2.3-0.3-4.5,0.8-6.4,3c-1.7,2.1-2.9,4.9-3.2,8C14.7,53.7,17.7,59.4,22.3,59.9z M17.4,47.3c0.3-2.7,1.3-5.2,2.8-6.9&#10;&#9;c1.3-1.5,2.7-2.3,4.2-2.3c0.1,0,0.3,0,0.4,0c1.6,0.2,3,1.3,4,3.2c1,2,1.5,4.7,1.1,7.4c-0.6,5.5-3.9,9.6-7.4,9.2&#10;&#9;C19.1,57.5,16.8,52.8,17.4,47.3z" style="stroke: rgb(0, 0, 0); fill: rgb(0, 0, 0);"/>
  <path class="st0" d="M79.1,37.1c-4.6,0-8.3,5.4-8.3,12s3.7,12,8.3,12s8.3-5.4,8.3-12S83.7,37.1,79.1,37.1z M79.1,59&#10;&#9;c-3.5,0-6.3-4.5-6.3-10s2.8-10,6.3-10s6.3,4.5,6.3,10S82.6,59,79.1,59z" style="stroke: rgb(0, 0, 0); fill: rgb(0, 0, 0);"/>
</svg>