<?xml version="1.0" encoding="utf-8"?>
<svg x="0px" y="0px" viewBox="0 0 100 100" xmlns="http://www.w3.org/2000/svg">
  <g>
    <path fill="#000000" d="M82.435,17.555c-7.408-7.407-19.461-7.407-26.869,0l-38,38.019C13.976,59.163,12,63.935,12,69.009   c0,5.075,1.977,9.847,5.565,13.435C21.269,86.148,26.135,88,31,88s9.731-1.852,13.435-5.556l38-38.019   C86.023,40.837,88,36.066,88,30.991C88,25.915,86.023,21.144,82.435,17.555z M79.606,41.596L60.52,60.692L39.308,39.48   l19.086-19.095c2.924-2.924,6.766-4.386,10.606-4.386s7.683,1.462,10.606,4.386C82.439,23.218,84,26.984,84,30.991   C84,34.996,82.439,38.763,79.606,41.596z"/>
  </g>
</svg>