<?xml version="1.0" encoding="utf-8"?>
<svg style="enable-background:new 0 0 100 100;" x="0px" y="0px" viewBox="0 0 100 100" xmlns="http://www.w3.org/2000/svg">
  <style type="text/css">
	.st0{fill:none;stroke:#000000;stroke-width:2;stroke-linecap:round;stroke-linejoin:round;stroke-miterlimit:10;}
	.st1{fill:none;stroke:#000000;stroke-width:2;stroke-miterlimit:10;}
	.st2{fill:none;stroke:#000000;stroke-width:2;stroke-linecap:round;stroke-miterlimit:10;}
	.st3{stroke:#000000;stroke-width:0.25;stroke-linecap:round;stroke-linejoin:round;stroke-miterlimit:10;}
	.st4{stroke:#000000;stroke-width:0.5;stroke-linecap:round;stroke-linejoin:round;stroke-miterlimit:10;}
</style>
  <path d="M35.2,58.7c0.1,0,0.2,0,0.4,0c0.4,2.7,1.1,5.3,2.4,7.8c0.1,0.1,0.1,0.2,0.2,0.3c0,0.1,0,0.2,0,0.3c0.2,0.7,0.1,1.3-0.2,1.9  c-1.3,2.2-5.9,3.6-7.5,3.9c-0.4,0.1-0.6,0.3-0.8,0.7s0,0.7,0.2,1c5.6,6.1,14.2,2.9,16.5,1.9c4.4,3,9.5,4.7,14.8,4.7  c14.3,0,26-11.7,26-26s-11.7-26-26-26c-2.6,0-5.2,0.4-7.6,1.1c-1-2.2-2.3-4.3-4.1-6c-3.8-3.9-8.9-6-14.3-6.1c-0.1,0-0.1,0-0.2,0  c-5.3,0-10.4,2.1-14.2,5.8c-8,7.8-8.1,20.7-0.3,28.6C24.5,56.5,29.7,58.7,35.2,58.7z M85.2,55.2c0,13.2-10.8,24-24,24  c-5.1,0-10-1.6-14.1-4.6c-0.2-0.1-0.4-0.2-0.6-0.2c-0.2,0-0.3,0-0.4,0.1c-0.1,0-8,3.9-13.4,0c2.2-0.7,5.6-2,7-4.4  c0.6-1.1,0.8-2.3,0.4-3.5c-0.1-0.2-0.2-0.3-0.3-0.4c0-0.2,0-0.3-0.1-0.5c-1.6-3.3-2.4-6.8-2.4-10.5c0-13.2,10.8-24,24-24  S85.2,41.9,85.2,55.2z M22.4,25.5c3.4-3.4,8-5.2,12.8-5.2c0.1,0,0.1,0,0.2,0c4.9,0,9.4,2,12.9,5.5c1.5,1.5,2.7,3.3,3.6,5.2  c-5.2,2-9.4,5.4-12.4,9.8l-2.2-2.2l3-3c0.4-0.4,0.4-1,0-1.4s-1-0.4-1.4,0l-3,3l-3-3c-0.4-0.4-1-0.4-1.4,0s-0.4,1,0,1.4l3,3l-3,3  c-0.4,0.4-0.4,1,0,1.4c0.2,0.2,0.5,0.3,0.7,0.3s0.5-0.1,0.7-0.3l3-3l2.6,2.6c-2.1,3.8-3.3,8.1-3.3,12.7c0,0.5,0,1,0.1,1.6  c-4.8,0-9.5-2-12.9-5.5C15.1,44.1,15.2,32.5,22.4,25.5z"/>
  <path d="M55.7,63.6c0.2,0.2,0.5,0.3,0.7,0.3s0.5-0.1,0.7-0.3l15.4-15.4c0.4-0.4,0.4-1,0-1.4s-1-0.4-1.4,0L56.4,61.5l-5-5  c-0.4-0.4-1-0.4-1.4,0s-0.4,1,0,1.4L55.7,63.6z"/>
</svg>